<svg width="100" height="100" viewBox="0 0 100 100" fill="none" xmlns="http://www.w3.org/2000/svg">
<g clip-path="url(#clip0_1_2)">
<mask id="path-1-outside-1_1_2" maskUnits="userSpaceOnUse" x="8" y="6" width="60" height="89" fill="black">
<rect fill="white" x="8" y="6" width="60" height="89"/>
<path d="M60.282 93.11C58.876 93.11 57.618 92.888 56.508 92.444C55.398 92.074 54.436 91.408 53.622 90.446C52.882 89.41 52.179 87.967 51.513 86.117L42.744 61.364C42.3 60.032 41.782 58.515 41.19 56.813C40.598 55.037 39.969 53.224 39.303 51.374C38.711 49.524 38.156 47.785 37.638 46.157C37.194 44.529 36.824 43.123 36.528 41.939H36.084C35.566 44.603 34.752 47.674 33.642 51.152C32.606 54.63 31.607 57.849 30.645 60.809L20.433 92H9.999L31.755 32.282L28.869 24.845C27.685 21.589 25.983 19.147 23.763 17.519C21.617 15.891 18.768 15.077 15.216 15.077C13.884 15.077 12.7 15.151 11.664 15.299C10.702 15.447 9.814 15.595 9 15.743V7.973C9.666 7.751 10.369 7.60299 11.109 7.529C11.923 7.381 12.774 7.27 13.662 7.19599C14.55 7.12199 15.475 7.08499 16.437 7.08499C20.285 7.08499 23.578 7.714 26.316 8.972C29.128 10.23 31.533 12.191 33.531 14.855C35.603 17.519 37.416 20.96 38.97 25.178L60.06 81.233C60.504 82.269 60.874 83.083 61.17 83.675C61.466 84.193 61.799 84.563 62.169 84.785C62.613 85.007 63.094 85.118 63.612 85.118C64.204 85.118 64.759 85.044 65.277 84.896C65.795 84.748 66.239 84.637 66.609 84.563V91.778C66.091 92 65.499 92.222 64.833 92.444C64.167 92.666 63.464 92.814 62.724 92.888C61.984 93.036 61.17 93.11 60.282 93.11Z"/>
</mask>
<path d="M60.282 93.11C58.876 93.11 57.618 92.888 56.508 92.444C55.398 92.074 54.436 91.408 53.622 90.446C52.882 89.41 52.179 87.967 51.513 86.117L42.744 61.364C42.3 60.032 41.782 58.515 41.19 56.813C40.598 55.037 39.969 53.224 39.303 51.374C38.711 49.524 38.156 47.785 37.638 46.157C37.194 44.529 36.824 43.123 36.528 41.939H36.084C35.566 44.603 34.752 47.674 33.642 51.152C32.606 54.63 31.607 57.849 30.645 60.809L20.433 92H9.999L31.755 32.282L28.869 24.845C27.685 21.589 25.983 19.147 23.763 17.519C21.617 15.891 18.768 15.077 15.216 15.077C13.884 15.077 12.7 15.151 11.664 15.299C10.702 15.447 9.814 15.595 9 15.743V7.973C9.666 7.751 10.369 7.60299 11.109 7.529C11.923 7.381 12.774 7.27 13.662 7.19599C14.55 7.12199 15.475 7.08499 16.437 7.08499C20.285 7.08499 23.578 7.714 26.316 8.972C29.128 10.23 31.533 12.191 33.531 14.855C35.603 17.519 37.416 20.96 38.97 25.178L60.06 81.233C60.504 82.269 60.874 83.083 61.17 83.675C61.466 84.193 61.799 84.563 62.169 84.785C62.613 85.007 63.094 85.118 63.612 85.118C64.204 85.118 64.759 85.044 65.277 84.896C65.795 84.748 66.239 84.637 66.609 84.563V91.778C66.091 92 65.499 92.222 64.833 92.444C64.167 92.666 63.464 92.814 62.724 92.888C61.984 93.036 61.17 93.11 60.282 93.11Z" fill="#F2F2F2"/>
<path d="M56.508 92.444L56.8794 91.5155L56.8521 91.5046L56.8242 91.4953L56.508 92.444ZM53.622 90.446L52.8083 91.0272L52.8321 91.0606L52.8586 91.0919L53.622 90.446ZM51.513 86.117L50.5704 86.4509L50.5721 86.4557L51.513 86.117ZM42.744 61.364L41.7953 61.6802L41.7983 61.6891L41.8014 61.6979L42.744 61.364ZM41.19 56.813L40.2412 57.1293L40.2455 57.1415L41.19 56.813ZM39.303 51.374L38.3506 51.6788L38.356 51.6958L38.3621 51.7127L39.303 51.374ZM37.638 46.157L36.6732 46.4201L36.6787 46.4403L36.6851 46.4602L37.638 46.157ZM36.528 41.939L37.4981 41.6965L37.3088 40.939H36.528V41.939ZM36.084 41.939V40.939H35.2597L35.1024 41.7481L36.084 41.939ZM33.642 51.152L32.6893 50.848L32.6864 50.8572L32.6836 50.8665L33.642 51.152ZM30.645 60.809L31.5954 61.1201L31.596 61.1181L30.645 60.809ZM20.433 92V93H21.1578L21.3834 92.3112L20.433 92ZM9.999 92L9.05941 91.6577L8.57039 93H9.999V92ZM31.755 32.282L32.6946 32.6243L32.8233 32.2709L32.6873 31.9202L31.755 32.282ZM28.869 24.845L27.9292 25.1867L27.9329 25.1968L27.9367 25.2068L28.869 24.845ZM23.763 17.519L23.1586 18.3157L23.1651 18.3206L23.1716 18.3254L23.763 17.519ZM11.664 15.299L11.5226 14.309L11.5119 14.3106L11.664 15.299ZM9 15.743H8V16.9412L9.17888 16.7269L9 15.743ZM9 7.973L8.68377 7.02431L8 7.25224V7.973H9ZM11.109 7.529L11.2085 8.52403L11.2484 8.52004L11.2879 8.51287L11.109 7.529ZM13.662 7.19599L13.579 6.19945L13.579 6.19945L13.662 7.19599ZM26.316 8.972L25.8985 9.88072L25.9076 9.88482L26.316 8.972ZM33.531 14.855L32.731 15.455L32.7363 15.462L32.7416 15.4689L33.531 14.855ZM38.97 25.178L38.0316 25.5237L38.0341 25.5301L38.97 25.178ZM60.06 81.233L59.1241 81.5851L59.132 81.6062L59.1409 81.6269L60.06 81.233ZM61.17 83.675L60.2756 84.1222L60.288 84.147L60.3018 84.1711L61.17 83.675ZM62.169 84.785L61.6545 85.6425L61.6874 85.6623L61.7218 85.6794L62.169 84.785ZM65.277 84.896L65.5517 85.8575L65.5517 85.8575L65.277 84.896ZM66.609 84.563H67.609V83.3432L66.4129 83.5824L66.609 84.563ZM66.609 91.778L67.0029 92.6971L67.609 92.4374V91.778H66.609ZM64.833 92.444L65.1492 93.3927L64.833 92.444ZM62.724 92.888L62.6245 91.893L62.5758 91.8978L62.5279 91.9074L62.724 92.888ZM60.282 92.11C58.9812 92.11 57.8524 91.9047 56.8794 91.5155L56.1366 93.3725C57.3836 93.8713 58.7708 94.11 60.282 94.11V92.11ZM56.8242 91.4953C55.9016 91.1878 55.0904 90.6332 54.3854 89.8001L52.8586 91.0919C53.7816 92.1828 54.8944 92.9602 56.1918 93.3927L56.8242 91.4953ZM54.4357 89.8648C53.7697 88.9323 53.1037 87.5834 52.4539 85.7783L50.5721 86.4557C51.2543 88.3506 51.9943 89.8877 52.8083 91.0272L54.4357 89.8648ZM52.4556 85.7831L43.6866 61.0301L41.8014 61.6979L50.5704 86.4509L52.4556 85.7831ZM43.6927 61.0478C43.247 59.7107 42.7275 58.1895 42.1345 56.4845L40.2455 57.1415C40.8365 58.8405 41.353 60.3533 41.7953 61.6802L43.6927 61.0478ZM42.1387 56.4968C41.5441 54.7129 40.9124 52.8924 40.2439 51.0353L38.3621 51.7127C39.0256 53.5556 39.6519 55.3611 40.2413 57.1292L42.1387 56.4968ZM40.2554 51.0692C39.6636 49.2197 39.1087 47.4812 38.5909 45.8538L36.6851 46.4602C37.2033 48.0888 37.7584 49.8283 38.3506 51.6788L40.2554 51.0692ZM38.6028 45.8939C38.16 44.2703 37.7919 42.8715 37.4981 41.6965L35.5579 42.1815C35.8561 43.3744 36.228 44.7876 36.6732 46.4201L38.6028 45.8939ZM36.528 40.939H36.084V42.939H36.528V40.939ZM35.1024 41.7481C34.5939 44.3634 33.7912 47.3953 32.6893 50.848L34.5947 51.456C35.7128 47.9527 36.5381 44.8426 37.0656 42.1299L35.1024 41.7481ZM32.6836 50.8665C31.6496 54.3379 30.653 57.5489 29.694 60.4999L31.596 61.1181C32.561 58.1491 33.5624 54.9221 34.6004 51.4375L32.6836 50.8665ZM29.6946 60.4978L19.4826 91.6888L21.3834 92.3112L31.5954 61.1201L29.6946 60.4978ZM20.433 91H9.999V93H20.433V91ZM10.9386 92.3423L32.6946 32.6243L30.8154 31.9397L9.05941 91.6577L10.9386 92.3423ZM32.6873 31.9202L29.8013 24.4832L27.9367 25.2068L30.8227 32.6438L32.6873 31.9202ZM29.8088 24.5033C28.5747 21.1094 26.7707 18.4846 24.3544 16.7126L23.1716 18.3254C25.1953 19.8094 26.7953 22.0686 27.9292 25.1867L29.8088 24.5033ZM24.3674 16.7223C21.9993 14.9258 18.9168 14.077 15.216 14.077V16.077C18.6192 16.077 21.2347 16.8562 23.1586 18.3157L24.3674 16.7223ZM15.216 14.077C13.8488 14.077 12.616 14.1528 11.5226 14.309L11.8054 16.2889C12.784 16.1492 13.9192 16.077 15.216 16.077V14.077ZM11.5119 14.3106C10.5425 14.4598 9.64543 14.6093 8.82112 14.7591L9.17888 16.7269C9.98258 16.5807 10.8615 16.4342 11.8161 16.2874L11.5119 14.3106ZM10 15.743V7.973H8V15.743H10ZM9.31623 8.92168C9.9079 8.72446 10.5379 8.59109 11.2085 8.52403L11.0095 6.53396C10.2001 6.6149 9.4241 6.77753 8.68377 7.02431L9.31623 8.92168ZM11.2879 8.51287C12.0678 8.37106 12.8867 8.26407 13.745 8.19254L13.579 6.19945C12.6613 6.27593 11.7782 6.39094 10.9301 6.54513L11.2879 8.51287ZM13.745 8.19254C14.6033 8.12102 15.5006 8.08499 16.437 8.08499V6.08499C15.4494 6.08499 14.4967 6.12297 13.579 6.19945L13.745 8.19254ZM16.437 8.08499C20.1794 8.08499 23.3224 8.69708 25.8985 9.88067L26.7335 8.06332C23.8336 6.73091 20.3906 6.08499 16.437 6.08499V8.08499ZM25.9076 9.88482C28.5522 11.0679 30.8264 12.9155 32.731 15.455L34.331 14.255C32.2396 11.4665 29.7038 9.39207 26.7244 8.05918L25.9076 9.88482ZM32.7416 15.4689C34.7335 18.0299 36.5022 21.3723 38.0317 25.5237L39.9083 24.8323C38.3298 20.5477 36.4725 17.0081 34.3204 14.2411L32.7416 15.4689ZM38.0341 25.5301L59.1241 81.5851L60.9959 80.8809L39.9059 24.8259L38.0341 25.5301ZM59.1409 81.6269C59.588 82.6703 59.9669 83.5048 60.2756 84.1222L62.0644 83.2278C61.7812 82.6612 61.42 81.8677 60.9791 80.8391L59.1409 81.6269ZM60.3018 84.1711C60.6518 84.7837 61.092 85.305 61.6545 85.6425L62.6835 83.9275C62.506 83.821 62.2802 83.6023 62.0382 83.1789L60.3018 84.1711ZM61.7218 85.6794C62.3107 85.9739 62.9457 86.118 63.612 86.118V84.118C63.2423 84.118 62.9153 84.0401 62.6162 83.8906L61.7218 85.6794ZM63.612 86.118C64.2878 86.118 64.936 86.0334 65.5517 85.8575L65.0023 83.9345C64.582 84.0546 64.1202 84.118 63.612 84.118V86.118ZM65.5517 85.8575C66.0537 85.7141 66.4701 85.6106 66.8051 85.5436L66.4129 83.5824C66.0079 83.6634 65.5363 83.7819 65.0023 83.9345L65.5517 85.8575ZM65.609 84.563V91.778H67.609V84.563H65.609ZM66.2151 90.8589C65.7278 91.0677 65.1626 91.2801 64.5168 91.4953L65.1492 93.3927C65.8354 93.1639 66.4542 92.9323 67.0029 92.6971L66.2151 90.8589ZM64.5168 91.4953C63.9251 91.6925 63.2951 91.8259 62.6245 91.893L62.8235 93.883C63.6329 93.8021 64.4089 93.6395 65.1492 93.3927L64.5168 91.4953ZM62.5279 91.9074C61.8626 92.0405 61.1154 92.11 60.282 92.11V94.11C61.2246 94.11 62.1054 94.0315 62.9201 93.8686L62.5279 91.9074Z" fill="#F2F2F2" mask="url(#path-1-outside-1_1_2)"/>
<line x1="58" y1="13" x2="58" y2="40" stroke="#F2F2F2" stroke-width="4"/>
<line x1="75" y1="13" x2="75" y2="40" stroke="#F2F2F2" stroke-width="4"/>
<line x1="92" y1="13" x2="92" y2="40" stroke="#F2F2F2" stroke-width="4"/>
</g>
<defs>
<clipPath id="clip0_1_2">
<rect width="100" height="100" fill="white"/>
</clipPath>
</defs>
</svg>
